# xmcd
#
# Track frame offsets:
#	150
#	15467
#	31540
#	43532
#	60720
#	75227
#	96762
#	113980
#	129562
#	141580
#
# Disc length: 2192 seconds
#
# Revision: 0
# Processed by: cddbd v1.4PL0 Copyright (c) Steve Scherf et al.
# Submitted via: audiograbber 1.82.02
#
DISCID=77088e0a
DTITLE=The Mavericks - From Hell To Paradise
DYEAR=1992
DGENRE=Country
TTITLE0=Mr. Jones
TTITLE1=The End Of The Line
TTITLE2=Excuse Me (I Think I've Got A Heartache)
TTITLE3=This Broken Heart
TTITLE4=I Got You
TTITLE5=From Hell To Paradise
TTITLE6=A Better Way
TTITLE7=Forever Blue
TTITLE8=Hey Good Lookin'
TTITLE9=Children
EXTD=YEAR: 1992  ID3G:   2
EXTT0=
EXTT1=
EXTT2=
EXTT3=
EXTT4=
EXTT5=
EXTT6=
EXTT7=
EXTT8=
EXTT9=
PLAYORDER=
